<svg width="48" height="48" viewBox="0 0 48 48" fill="none" xmlns="http://www.w3.org/2000/svg">
  <!-- Orange rounded square -->
  <rect width="48" height="48" rx="10" fill="#FF4500"></rect>

  <!-- Chat bubble -->
  <path d="M14 14h20c2.2 0 4 1.8 4 4v10c0 2.2-1.8 4-4 4H22l-6 4v-4h-2c-2.2 0-4-1.8-4-4V18c0-2.2 1.8-4 4-4z" fill="white"></path>

  <!-- Question mark -->
  <path d="M24 18c-2.2 0-4 1.3-4 3h2c0-.7.9-1.5 2-1.5s2 .6 2 1.5c0 1.8-3 1.6-3 4h2c0-1.6 3-1.8 3-4 0-1.7-1.8-3-4-3zm-1 9h2v2h-2v-2z" fill="#FF4500"></path>
</svg>
